<svg width="900" height="1100" viewBox="0 0 900 1100" fill="none" xmlns="http://www.w3.org/2000/svg">
  <rect width="900" height="1100" fill="#F7F3ED"/>
  <rect x="110" y="120" width="680" height="860" rx="30" fill="#E7DDD1"/>
  <rect x="190" y="190" width="200" height="200" rx="18" fill="#F7F3ED" fill-opacity="0.8"/>
  <rect x="430" y="190" width="200" height="200" rx="18" fill="#A89583" fill-opacity="0.8"/>
  <rect x="190" y="430" width="200" height="200" rx="18" fill="#6F2335" fill-opacity="0.7"/>
  <rect x="430" y="430" width="200" height="200" rx="18" fill="#1E1E1E" fill-opacity="0.8"/>
  <rect x="190" y="670" width="440" height="160" rx="18" fill="#F7F3ED" fill-opacity="0.8"/>
  <path d="M218 867C297 776 375 741 454 744C536 748 611 783 684 866" stroke="#1E1E1E" stroke-width="10" stroke-linecap="round"/>
  <path d="M231 238H350" stroke="#1E1E1E" stroke-width="12" stroke-linecap="round"/>
  <path d="M471 238H590" stroke="#F7F3ED" stroke-width="12" stroke-linecap="round"/>
  <path d="M231 492H350" stroke="#F7F3ED" stroke-width="12" stroke-linecap="round"/>
  <path d="M471 492H590" stroke="#F7F3ED" stroke-width="12" stroke-linecap="round"/>
</svg>
